<?xml version="1.0" encoding="utf-8"?>
<!-- Generator: Adobe Illustrator 24.1.1, SVG Export Plug-In . SVG Version: 6.00 Build 0)  -->
<svg version="1.1" id="Capa_1" xmlns="http://www.w3.org/2000/svg" xmlns:xlink="http://www.w3.org/1999/xlink" x="0px" y="0px"
	 viewBox="0 0 297.1 297.1" style="enable-background:new 0 0 297.1 297.1;" xml:space="preserve">
<style type="text/css">
	.st0{fill:#231F20;}
</style>
<g>
	<g>
		<path class="st0" d="M210.5,297H86.6v-26.2h123.9V297z M96.3,287.3h104.6v-6.8H96.3V287.3z"/>
	</g>
	<g>
		<path class="st0" d="M179.4,165.4h-62c-8,0-14.5-6.5-14.5-14.5c0-3.9,1.5-7.5,4.2-10.2c2.8-2.7,6.4-4.3,10.3-4.3h62
			c8,0,14.5,6.5,14.5,14.5c0,3.9-1.5,7.5-4.2,10.2C186.9,163.9,183.2,165.4,179.4,165.4z M117.4,146.1c-1.3,0-2.5,0.5-3.4,1.4
			c-0.9,0.9-1.4,2.1-1.4,3.4c0,2.7,2.2,4.8,4.8,4.8h62c1.3,0,2.5-0.5,3.4-1.4c0.9-0.9,1.4-2.1,1.4-3.4c0-2.7-2.2-4.8-4.8-4.8H117.4z
			"/>
	</g>
	<g>
		<path class="st0" d="M205,280.4H92.1c-9.3,0-16.9-7.6-16.9-16.9c0-9.3,7.6-16.9,16.9-16.9H205c9.3,0,16.9,7.6,16.9,16.9
			C221.9,272.9,214.3,280.4,205,280.4z M92.1,256.3c-4,0-7.2,3.2-7.2,7.2c0,4,3.2,7.2,7.2,7.2H205c4,0,7.2-3.2,7.2-7.2
			c0-4-3.2-7.2-7.2-7.2H92.1z"/>
	</g>
	<g>
		<path class="st0" d="M148.5,40.4c-11.2,0-20.2-9.1-20.2-20.2c0-11.2,9.1-20.2,20.2-20.2c11.2,0,20.2,9.1,20.2,20.2
			C168.8,31.3,159.7,40.4,148.5,40.4z M148.5,9.6c-5.8,0-10.6,4.7-10.6,10.6s4.7,10.6,10.6,10.6c5.8,0,10.6-4.7,10.6-10.6
			S154.4,9.6,148.5,9.6z"/>
	</g>
	<g>
		<path class="st0" d="M172.9,146.1h-49.3l-1.3-0.9c-10.7-7.9-16.9-20-16.9-33.3c0-11.6,10.1-31.8,30.1-59.9l13-20.3l13,20.3
			c3.2,4.5,17.5,27.2,18.1,28.2l0.1,0.2c7.8,13.8,11.6,24.1,11.6,31.5c0,13.5-6.3,25.7-17.2,33.4L172.9,146.1z M126.8,136.4h43
			c7.6-5.9,11.9-14.8,11.9-24.6c0-3.8-1.8-11.6-10.3-26.6c-1.1-1.7-15.1-23.9-17.9-27.8l-0.1-0.2l-4.9-7.6l-5,7.8
			c-18.1,25.4-28.4,45.2-28.4,54.4C115.1,121.5,119.3,130.4,126.8,136.4z"/>
	</g>
	<g>
		<path class="st0" d="M174.1,80.8l-13.4,13.4c-3.8,3.8-9.1,4.6-11.9,1.7c-1.4-1.4-1.9-3.4-1.6-5.6c0.3-2.2,1.5-4.4,3.3-6.3
			l15.9-15.9l6.4,10.5C173.2,79.3,173.6,80.1,174.1,80.8z"/>
	</g>
	<g>
		<path class="st0" d="M204.1,256.3H93l-1.4-2.3c-2.5-3.9-9.7-17.8,1-31.6c7.3-9.4,22.4-36.9,22.6-61.9l0-4.8h66.6l0.1,4.8
			c0.3,25.2,15.4,52.6,22.6,62c10.7,13.8,3.4,27.7,1,31.6L204.1,256.3z M98.5,246.6h100c2-4.1,3.8-11.2-1.7-18.2
			c-8.8-11.3-22.6-37.7-24.5-63h-47.7c-1.8,25.2-15.6,51.6-24.5,63C94.8,235.4,96.6,242.5,98.5,246.6z"/>
	</g>
</g>
</svg>
