<?xml version="1.0" encoding="utf-8"?>
<!-- Generator: Adobe Illustrator 24.1.1, SVG Export Plug-In . SVG Version: 6.00 Build 0)  -->
<svg version="1.1" id="Capa_1" xmlns="http://www.w3.org/2000/svg" xmlns:xlink="http://www.w3.org/1999/xlink" x="0px" y="0px"
	 viewBox="0 0 485.9 485.9" style="enable-background:new 0 0 485.9 485.9;" xml:space="preserve">
<style type="text/css">
	.st0{fill:#231F20;}
</style>
<g>
	<g>
		<g>
			<path class="st0" d="M369.4,485.6h-253c-16,0-29.1-13-29.1-29.1v-35.4c0-8.1,3-15.9,8.4-22l28.7-32.2c3.9-4.4,9.6-7,15.5-7h206.2
				c6,0,11.7,2.6,15.6,7.1l28.6,32.2c5.4,6,8.4,13.8,8.4,21.9v35.4C398.5,472.6,385.4,485.6,369.4,485.6z M139.9,372.8
				c-2.2,0-4.4,1-5.9,2.6l-28.7,32.3c-3.3,3.7-5.1,8.4-5.1,13.4v35.4c0,8.9,7.3,16.2,16.2,16.2h253c8.9,0,16.2-7.3,16.3-16.2v-35.4
				c0-5-1.8-9.7-5.1-13.4L352,375.5c-1.5-1.7-3.7-2.7-5.9-2.7H139.9z"/>
		</g>
	</g>
	<g>
		<g>
			<path class="st0" d="M331.4,353.4h-177c-11.2,0-20.3-9.2-20.3-20.4V124.4l-7.7-2.8c-21.6-7.7-36.1-28.3-36.1-51.1V20.7
				c0-11.1,9.1-20.2,20.2-20.2h14.8c11.1,0,20.2,9.1,20.2,20.2v11.7h7.3V20.7c0-11.1,9.1-20.2,20.2-20.2h14.9
				c11.1,0,20.2,9.1,20.2,20.2v11.7h7.3V20.7c0-11.1,9.1-20.2,20.2-20.2h14.9c11.1,0,20.2,9.1,20.2,20.2v11.7h7.3V20.7
				c0-11.1,9.1-20.2,20.2-20.2h14.9c11.1,0,20.2,9.1,20.2,20.2v11.7h6.9V20.7c0-11.1,9.1-20.2,20.2-20.2h14.9
				c5.4,0,10.5,2.1,14.3,5.9c1.9,1.9,3.4,4.1,4.4,6.6c1,2.5,1.5,5.1,1.5,7.8c0,4.5,0,10.4,0,16.9c0,8.1-0.1,17.2-0.1,26v7.1
				c-0.1,22.9-14.6,43.4-36.1,51l-7.4,2.7v208.7C351.8,344.3,342.6,353.4,331.4,353.4z M110.6,13.1c-4.2,0-7.6,3.4-7.6,7.6v49.8
				c0,17.6,11.1,33.3,27.7,39.2l16.1,5.8V333c0,4.3,3.4,7.8,7.7,7.8h177c4.3,0,7.8-3.5,7.9-7.8l0-217.5l15.9-5.7
				c16.5-5.8,27.6-21.5,27.7-39.1v-7.1c0-8.7,0-17.9,0.1-26c0-6.5,0-12.4,0-16.8c0-1-0.2-2-0.6-3c-0.4-0.9-0.9-1.7-1.6-2.4
				c-1.4-1.4-3.3-2.2-5.3-2.2h-14.9c-4.2,0-7.6,3.4-7.6,7.6v13.5c0,5.9-4.8,10.8-10.8,10.8h-10.6c-5.9,0-10.8-4.8-10.8-10.8V20.7
				c0-4.2-3.4-7.6-7.6-7.6h-14.9c-4.2,0-7.6,3.4-7.6,7.6v13.5c0,5.9-4.8,10.8-10.8,10.8h-11c-5.9,0-10.8-4.8-10.8-10.8V20.7
				c0-4.2-3.4-7.6-7.6-7.6h-14.9c-4.2,0-7.6,3.4-7.6,7.6v13.5c0,5.9-4.8,10.8-10.8,10.8h-11c-5.9,0-10.8-4.8-10.8-10.8V20.7
				c0-4.2-3.4-7.6-7.6-7.6h-14.9c-4.2,0-7.6,3.4-7.6,7.6v13.5c0,5.9-4.8,10.8-10.8,10.8h-11c-5.9,0-10.8-4.8-10.8-10.8V20.7
				c0-4.2-3.4-7.6-7.6-7.6H110.6z"/>
		</g>
	</g>
	<g>
		<path class="st0" d="M283.3,243.7h-80.7v-72.5c0-22.3,18.1-40.4,40.4-40.4s40.4,18.1,40.4,40.4V243.7z M215.2,231.1h55.6v-59.9
			c0-15.3-12.5-27.8-27.8-27.8c-15.3,0-27.8,12.5-27.8,27.8V231.1z"/>
	</g>
</g>
</svg>
