<?xml version="1.0" encoding="utf-8"?>
<!-- Generator: Adobe Illustrator 24.1.1, SVG Export Plug-In . SVG Version: 6.00 Build 0)  -->
<svg version="1.1" id="Capa_1" xmlns="http://www.w3.org/2000/svg" xmlns:xlink="http://www.w3.org/1999/xlink" x="0px" y="0px"
	 viewBox="0 0 468.3 468.3" style="enable-background:new 0 0 468.3 468.3;" xml:space="preserve">
<style type="text/css">
	.st0{fill:#231F20;}
	.st1{fill:#FFFFFF;}
</style>
<g>
	<path class="st0" d="M417.4,220.5c-1.2-4.9-3.3-10.3-6.5-16.1c-6.9-12.6-12.9-25.7-17.6-39.3c-9.2-26.4-25.3-67.2-43.6-88.9
		c0,0,0,0,0,0c-0.1-0.7-5.3-34.3-1.1-53.4c0.3-1.5-1.3-2.6-2.5-1.8c-5.6,3.5-16.1,10.7-18.3,17.4c0,0.1-0.2,0.1-0.2,0
		c0-3.7,0-20.4,5.1-33.9c0.5-1.3-1-2.5-2.1-1.7c-11.2,7.8-41.5,30.2-43,44.9c0,0.1-0.1,0.1-0.2,0.1C284,46.3,217,18.4,124.2,88.1
		c-1,0.8-0.4,2.4,0.9,2.2c9.2-1.3,28.8-3.4,34.3,0.6c0.1,0,0.1,0.1,0,0.2c-4.1,2.3-92,53.1-108.8,108.5c-0.4,1.3,1,2.4,2.2,1.7
		c7.5-4.6,26.4-15.3,35.2-13c0.1,0,0.1,0.1,0.1,0.2c-1.9,3.6-44.6,86.3,33.8,173.1c1,1.1,2.5,1.8,4,1.8H292c2.3,0,4.1-2,3.8-4.3
		c-0.8-7.6-4.1-24.2-16.3-39.8c-6.6-8.4-12.7-17.2-17.2-26.9c-11.2-24.4-23.2-66.2,6.4-97.2c5.5-5.8,14.8-5.7,20.1,0.3
		c9.4,10.7,25.7,26.7,43.9,34.2c10.3,4.3,19.6,10.8,26,20c4.5,6.5,11.7,12.7,22.9,13.7C405.1,265.7,423.2,243.3,417.4,220.5z"/>
	<path class="st0" d="M307.4,368.4H107c-9.5,0-17.3,7.7-17.3,17.3v0c0,9.5,7.7,17.3,17.3,17.3h200.3c9.5,0,17.3-7.7,17.3-17.3v0
		C324.7,376.1,316.9,368.4,307.4,368.4z"/>
	<path class="st1" d="M316.1,110.1c-1,21.9,16,40.5,37.9,41.5C355,129.7,338,111.1,316.1,110.1z"/>
	<path class="st0" d="M86.6,406.9h240.6c14.8,0,26.8,12,26.8,26.8v0c0,14.8-12,26.8-26.8,26.8H86.6c-14.8,0-26.8-12-26.8-26.8v0
		C59.8,418.9,71.8,406.9,86.6,406.9z"/>
</g>
</svg>
