<?xml version="1.0" encoding="utf-8"?>
<!-- Generator: Adobe Illustrator 24.1.1, SVG Export Plug-In . SVG Version: 6.00 Build 0)  -->
<svg version="1.1" id="Capa_1" xmlns="http://www.w3.org/2000/svg" xmlns:xlink="http://www.w3.org/1999/xlink" x="0px" y="0px"
	 viewBox="0 0 468.3 468.3" style="enable-background:new 0 0 468.3 468.3;" xml:space="preserve">
<style type="text/css">
	.st0{fill:#231F20;}
</style>
<g>
	<path d="M293.9,366.8H122.6l-1.4-1.5c-41.6-45.2-48.8-89.5-47.5-118.7c0.9-21,6.2-37.2,9.8-46c-7.7,2.1-19.1,8.2-26.4,13L47,220.2
		l2.9-11.7c11.1-45.5,71-87.5,96-103.3c-6.4,0.1-15,0.8-23.3,2.3l-18.8,3.2L118.8,99c48.8-37.8,90.6-47.2,117-48.4
		c20.2-0.9,34.7,2.5,41.9,4.9c7.8-18.2,41.2-40.6,45.4-43.3l14.8-9.7L330,18.2c-3.1,6.2-4.7,13.9-5.5,20.6
		c5.5-4.6,11.4-7.9,13.3-8.9l10.7-5.8l-3.9,11.5c-4.8,14.2-0.9,44.4,0,51c17.1,20.9,31.9,57.7,41.5,85.1
		c4.1,11.9,9.7,24.2,16.5,36.6c3.5,6.4,5.9,12.8,7.2,19l0,0c2.3,11.2-0.8,22.8-8.5,31.7c-7.7,8.8-18.6,13.5-30,12.8
		c-10.9-0.7-20-5.9-26.4-15.2c-5.1-7.4-12.9-13.4-22.6-17.4c-17.8-7.3-33.6-22.5-43.6-33.9c-1.5-1.7-3.5-2.6-5.8-2.7
		c-2.3-0.1-4.6,0.9-6.2,2.6c-25.3,26.6-16.8,62.1-5.2,87.3c3.5,7.6,8.4,15.2,15.8,24.6c16.6,21.2,16.8,43.9,16.8,44.9V366.8z
		 M126.8,357.3h157.1c-1-7.1-4.1-21.1-14.4-34.2c-7.9-10-13.1-18.2-16.9-26.5c-10.5-22.8-23.5-65.8,7-97.8c3.5-3.6,8.3-5.6,13.3-5.5
		c4.9,0.1,9.5,2.2,12.8,5.9c7.7,8.7,23.2,24.4,40.1,31.4c11.4,4.7,20.7,11.9,26.8,20.7c4.8,6.9,11.2,10.6,19.1,11.1
		c8.4,0.5,16.5-3,22.2-9.6c5.8-6.6,8.1-15.2,6.4-23.5l0,0c-1.1-5.2-3.2-10.7-6.2-16.3c-7-12.9-12.8-25.7-17.1-38.1
		c-7.7-22.2-23.3-62.6-40.6-83.2l-0.9-1l-0.2-1.3c-0.2-1.3-4-26.3-2.1-45.3c-4.8,3.5-9,7.5-9.7,10.5l-8.2,33.3l-1.1-34.3
		c0-0.7-0.4-12.6,2.4-25.1c-14.5,10.9-30.2,25.3-31,33.7l-0.6,6.7l-6.1-2.8c-0.1-0.1-16.4-7.3-43.3-5.9
		c-22.3,1.1-56.2,8.5-96.3,35.8c9-0.5,18.5-0.2,22.7,3.1l5.6,4.4l-6.2,3.5c-0.8,0.5-76.7,43.8-98.2,92c9.2-4.9,21.6-10.2,29.2-8.1
		l5.7,1.6l-2.9,5.2c-0.1,0.2-10.8,20.1-12,49.8C81.6,286.6,96.3,323.5,126.8,357.3z"/>
</g>
<g>
	<path class="st0" d="M325.6,409H89v-34.8c0-9.3,7.6-16.9,16.9-16.9h202.9c9.3,0,16.9,7.6,16.9,16.9V409z M98.6,399.3H316v-25.1
		c0-4-3.2-7.2-7.2-7.2H105.9c-4,0-7.2,3.2-7.2,7.2V399.3z"/>
</g>
<g>
	<path class="st0" d="M351.4,468.3H63.2v-52.1c0-9.3,7.6-16.9,16.9-16.9h254.3c9.3,0,16.9,7.6,16.9,16.9V468.3z M72.9,458.6h268.8
		v-42.4c0-4-3.2-7.2-7.2-7.2H80.1c-4,0-7.2,3.2-7.2,7.2V458.6z"/>
</g>
<g>
	<path class="st0" d="M304.4,110.5c-1,22.4,16.3,41.5,38.8,42.5C344.2,130.6,326.9,111.6,304.4,110.5z"/>
</g>
</svg>
