<?xml version="1.0" encoding="iso-8859-1"?>
<!-- Generator: Adobe Illustrator 19.0.0, SVG Export Plug-In . SVG Version: 6.00 Build 0)  -->
<svg version="1.1" id="Capa_1" xmlns="http://www.w3.org/2000/svg" xmlns:xlink="http://www.w3.org/1999/xlink" x="0px" y="0px"
	 viewBox="0 0 512 512" style="enable-background:new 0 0 512 512;" xml:space="preserve">
<g>
	<g>
		<g>
			<path d="M183.376,221h11.217L184.09,381h143.819l-10.502-160h11.218c8.284,0,15-6.716,15-15v-51c0-8.284-6.716-15-15-15h-24.941
				l12.547-41.676c1.367-4.542,0.506-9.464-2.324-13.272c-2.83-3.808-7.295-6.052-12.039-6.052H271v-9.5h24.5
				c8.284,0,15-6.716,15-15s-6.716-15-15-15H271V15c0-8.284-6.716-15-15-15s-15,6.716-15,15v24.5h-24.5c-8.284,0-15,6.716-15,15
				s6.716,15,15,15H241V79h-30.868c-4.744,0-9.208,2.244-12.039,6.052c-2.829,3.807-3.692,8.73-2.324,13.272L208.317,140h-24.941
				c-8.284,0-15,6.716-15,15v51C168.376,214.284,175.091,221,183.376,221z"/>
			<path d="M380.225,492.24l-23.758-71c-2.047-6.117-7.774-10.24-14.225-10.24H169.758c-6.45,0-12.178,4.124-14.225,10.24
				l-23.758,71c-1.531,4.575-0.768,9.608,2.051,13.523C136.645,509.678,141.175,512,146,512h220c4.825,0,9.354-2.321,12.174-6.236
				C380.992,501.848,381.756,496.815,380.225,492.24z"/>
		</g>
	</g>
</g>
<g>
</g>
<g>
</g>
<g>
</g>
<g>
</g>
<g>
</g>
<g>
</g>
<g>
</g>
<g>
</g>
<g>
</g>
<g>
</g>
<g>
</g>
<g>
</g>
<g>
</g>
<g>
</g>
<g>
</g>
</svg>
