<?xml version="1.0" encoding="iso-8859-1"?>
<!-- Generator: Adobe Illustrator 19.0.0, SVG Export Plug-In . SVG Version: 6.00 Build 0)  -->
<svg version="1.1" id="Capa_1" xmlns="http://www.w3.org/2000/svg" xmlns:xlink="http://www.w3.org/1999/xlink" x="0px" y="0px"
	 viewBox="0 0 512 512" style="enable-background:new 0 0 512 512;" xml:space="preserve">
<g>
	<g>
		<path d="M380.225,492.24l-23.758-71c-2.047-6.117-7.774-10.24-14.225-10.24h-12.364l-12.471-190h11.218c8.284,0,15-6.716,15-15
			v-51c0-8.284-6.716-15-15-15h-24.941l12.547-41.676c1.367-4.542,0.506-9.465-2.324-13.272S306.612,79,301.868,79H271v-9.5h24.5
			c8.284,0,15-6.716,15-15s-6.716-15-15-15H271V15c0-8.284-6.716-15-15-15s-15,6.716-15,15v24.5h-24.5c-8.284,0-15,6.716-15,15
			s6.716,15,15,15H241V79h-30.868c-4.744,0-9.208,2.244-12.039,6.052c-2.83,3.808-3.692,8.73-2.324,13.272L208.316,140h-24.941
			c-8.284,0-15,6.716-15,15v51c0,8.284,6.716,15,15,15h11.217L182.12,411h-12.362c-6.45,0-12.178,4.124-14.225,10.24l-23.758,71
			c-1.531,4.575-0.768,9.608,2.051,13.523C136.645,509.678,141.175,512,146,512h220c4.825,0,9.354-2.321,12.174-6.236
			C380.992,501.848,381.756,496.815,380.225,492.24z M281.687,109l-9.334,31h-32.707l-9.333-31H281.687z M198.376,170
			c13.723,0,100.291,0,115.25,0v21c-12.907,0-100.917,0-115.25,0V170z M299.815,411h-87.629l12.471-190h62.686L299.815,411z
			 M166.837,482l13.72-41c34.802,0,118.414,0,150.888,0l13.719,41H166.837z"/>
	</g>
</g>
<g>
</g>
<g>
</g>
<g>
</g>
<g>
</g>
<g>
</g>
<g>
</g>
<g>
</g>
<g>
</g>
<g>
</g>
<g>
</g>
<g>
</g>
<g>
</g>
<g>
</g>
<g>
</g>
<g>
</g>
</svg>
