<?xml version="1.0" encoding="utf-8"?>
<!-- Generator: Adobe Illustrator 24.1.1, SVG Export Plug-In . SVG Version: 6.00 Build 0)  -->
<svg version="1.1" id="Layer_1" xmlns="http://www.w3.org/2000/svg" xmlns:xlink="http://www.w3.org/1999/xlink" x="0px" y="0px"
	 viewBox="0 0 512 512" style="enable-background:new 0 0 512 512;" xml:space="preserve">
<style type="text/css">
	.st0{fill:#231F20;}
</style>
<g>
	<g>
		<path class="st0" d="M305.2,183.1h-98.5c-12.8,0-23.3-10.4-23.3-23.3s10.4-23.3,23.3-23.3h98.5c12.8,0,23.3,10.4,23.3,23.3
			S318.1,183.1,305.2,183.1z M206.8,146.3c-7.4,0-13.5,6-13.5,13.5s6,13.5,13.5,13.5h98.5c7.4,0,13.5-6,13.5-13.5s-6-13.5-13.5-13.5
			H206.8z"/>
	</g>
	<g>
		<path class="st0" d="M370.6,427.9H146.8c-12.8,0-23.3-10.4-23.3-23.3c0-12.8,10.4-23.3,23.3-23.3h223.8
			c12.8,0,23.3,10.4,23.3,23.3C393.9,417.5,383.4,427.9,370.6,427.9z M146.8,391.2c-7.4,0-13.5,6-13.5,13.5s6,13.5,13.5,13.5h223.8
			c7.4,0,13.5-6,13.5-13.5s-6-13.5-13.5-13.5H146.8z"/>
	</g>
	<g>
		<path class="st0" d="M352.1,367.6H159.9l6-14.1c20.9-49,31.5-100.9,31.5-154.2v-8.3h117v8.3c0,53.3,10.6,105.2,31.5,154.2
			L352.1,367.6z M174.8,357.8h162.4l-0.2-0.4c-21.2-49.8-32.1-102.4-32.3-156.5h-97.4c-0.2,54.1-11.1,106.7-32.3,156.5L174.8,357.8z
			"/>
	</g>
	<g>
		<path class="st0" d="M256,128.6c-35.4,0-64.3-28.8-64.3-64.3C191.7,28.8,220.6,0,256,0s64.3,28.8,64.3,64.3
			C320.3,99.7,291.4,128.6,256,128.6z M256,9.8c-30,0-54.5,24.4-54.5,54.5s24.4,54.5,54.5,54.5c30,0,54.5-24.4,54.5-54.5
			S286,9.8,256,9.8z"/>
	</g>
	<g>
		<path class="st0" d="M420.5,512h-329v-27.2c0-23.8,19.3-43.1,43.1-43.1h242.8c23.8,0,43.1,19.3,43.1,43.1V512z M101.3,502.2h309.4
			v-17.4c0-18.3-14.9-33.3-33.3-33.3H134.6c-18.3,0-33.3,14.9-33.3,33.3V502.2z"/>
	</g>
</g>
</svg>
