<?xml version="1.0" encoding="utf-8"?>
<!-- Generator: Adobe Illustrator 24.1.1, SVG Export Plug-In . SVG Version: 6.00 Build 0)  -->
<svg version="1.1" id="Layer_1" xmlns="http://www.w3.org/2000/svg" xmlns:xlink="http://www.w3.org/1999/xlink" x="0px" y="0px"
	 viewBox="0 0 512 512" style="enable-background:new 0 0 512 512;" xml:space="preserve">
<path d="M206.3,133.3h100.4c10.3,0,18.7,8.4,18.7,18.7v0c0,10.3-8.4,18.7-18.7,18.7H206.3c-10.3,0-18.7-8.4-18.7-18.7l0,0
	C187.6,141.7,195.9,133.3,206.3,133.3z"/>
<path d="M145.2,388.8h228.1c10.3,0,18.7,8.4,18.7,18.7v0c0,10.3-8.4,18.7-18.7,18.7H145.2c-10.3,0-18.7-8.4-18.7-18.7v0
	C126.5,397.2,134.8,388.8,145.2,388.8z"/>
<path d="M343.7,357.4c-21.6-50.6-32.6-104.2-32.6-159.2v-3.4H201.8v3.4c0,55-11,108.6-32.6,159.2l-3.2,7.4h180.8L343.7,357.4z"/>
<circle cx="256.5" cy="60.5" r="60.5"/>
<path d="M419.2,512H93.8v-22.8c0-21.5,17.4-38.9,38.9-38.9h247.6c21.5,0,38.9,17.4,38.9,38.9V512z"/>
</svg>
