<?xml version="1.0" encoding="iso-8859-1"?>
<!-- Generator: Adobe Illustrator 19.0.0, SVG Export Plug-In . SVG Version: 6.00 Build 0)  -->
<svg version="1.1" id="Capa_1" xmlns="http://www.w3.org/2000/svg" xmlns:xlink="http://www.w3.org/1999/xlink" x="0px" y="0px"
	 viewBox="0 0 512.06 512.06" style="enable-background:new 0 0 512.06 512.06;" xml:space="preserve">
<g>
	<g>
		<path d="M392.563,426.727h-4.46l2.668-6.671c3.408-8.526,3.239-18.065-0.469-26.464c-3.708-8.399-10.643-14.952-19.239-18.178
			l-26.556-9.958c3.471-4.434,5.367-9.898,5.389-15.529c-0.015-14.132-11.468-25.585-25.6-25.6h-8.533V179.26h8.533
			c14.138,0,25.6-11.461,25.6-25.6c0-14.139-11.461-25.6-25.6-25.6h-5.231l11.851-35.551l0.08-0.241l9.925-29.775
			c0.975-2.894,0.329-6.088-1.694-8.375c-2.023-2.287-5.114-3.319-8.106-2.705c-2.991,0.614-5.426,2.781-6.384,5.68l-4.873,14.62
			c-8.983-10.206-20.278-18.115-32.941-23.064c6.738-14.34,2.722-31.431-9.697-41.269s-29.975-9.839-42.393,0
			s-16.434,26.93-9.697,41.269c-12.664,4.949-23.959,12.858-32.942,23.064l-4.873-14.62c-0.958-2.899-3.393-5.066-6.384-5.68
			s-6.083,0.417-8.106,2.705c-2.023,2.287-2.669,5.482-1.694,8.375l9.925,29.775l0.08,0.241l11.851,35.551h-5.231
			c-14.138,0-25.6,11.461-25.6,25.6c0,14.138,11.462,25.6,25.6,25.6h8.533v145.067h-8.533c-14.132,0.015-25.585,11.468-25.6,25.6
			c0.022,5.631,1.918,11.095,5.389,15.529l-26.556,9.958c-8.596,3.226-15.531,9.778-19.239,18.178
			c-3.708,8.399-3.877,17.938-0.469,26.464l2.668,6.671h-4.46c-14.132,0.015-25.585,11.468-25.6,25.6v34.133
			c0.015,14.132,11.468,25.585,25.6,25.6h273.067c14.132-0.015,25.585-11.468,25.6-25.6v-34.133
			C418.148,438.194,406.695,426.742,392.563,426.727z M256.03,17.126c9.426,0,17.067,7.641,17.067,17.067
			c0.01,3.518-1.08,6.951-3.117,9.818c-9.221-1.713-18.678-1.713-27.898,0c-2.037-2.868-3.127-6.3-3.118-9.818
			C238.963,24.768,246.604,17.126,256.03,17.126z M256.03,59.793c16.553,0.048,32.523,6.114,44.934,17.067h-89.869
			C223.506,65.907,239.477,59.841,256.03,59.793z M312.461,93.926l-11.378,34.133h-90.105l-11.378-34.133H312.461z M187.763,162.193
			c-4.711-0.005-8.529-3.823-8.533-8.533c0.005-4.711,3.822-8.529,8.533-8.533h17.04l0.027,0.004l0.026-0.004h102.349l0.026,0.004
			l0.027-0.004h17.04c4.713,0,8.533,3.821,8.533,8.533c0,4.713-3.82,8.533-8.533,8.533H187.763z M298.697,179.26v145.067h-85.333
			V179.26H298.697z M187.763,341.393h136.533c4.713,0,8.533,3.82,8.533,8.533s-3.82,8.533-8.533,8.533H187.763
			c-4.713,0-8.533-3.82-8.533-8.533S183.05,341.393,187.763,341.393z M137.374,400.483c1.855-4.199,5.323-7.474,9.622-9.085
			l42.322-15.871h133.422l42.322,15.871c4.299,1.611,7.767,4.886,9.622,9.085s1.94,8.969,0.236,13.231l-5.205,13.013H142.343
			l-5.205-13.012C135.434,409.451,135.519,404.682,137.374,400.483z M401.097,486.46c-0.005,4.711-3.822,8.529-8.533,8.533h-8.533
			v-17.067c0-4.713-3.82-8.533-8.533-8.533s-8.533,3.82-8.533,8.533v17.067h-17.067v-17.067c0-4.713-3.82-8.533-8.533-8.533
			s-8.533,3.82-8.533,8.533v17.067h-17.067v-17.067c0-4.713-3.82-8.533-8.533-8.533s-8.533,3.82-8.533,8.533v17.067H281.63v-17.067
			c0-4.713-3.82-8.533-8.533-8.533s-8.533,3.82-8.533,8.533v17.067h-17.067v-17.067c0-4.713-3.82-8.533-8.533-8.533
			s-8.533,3.82-8.533,8.533v17.067h-17.067v-17.067c0-4.713-3.82-8.533-8.533-8.533s-8.533,3.82-8.533,8.533v17.067H179.23v-17.067
			c0-4.713-3.82-8.533-8.533-8.533c-4.713,0-8.533,3.82-8.533,8.533v17.067h-17.067v-17.067c0-4.713-3.82-8.533-8.533-8.533
			s-8.533,3.82-8.533,8.533v17.067h-8.533c-4.711-0.005-8.529-3.822-8.533-8.533v-34.133c0.005-4.711,3.822-8.529,8.533-8.533
			h17.039l0.028,0.004l0.021-0.004h238.891l0.021,0.004l0.028-0.004h17.039c4.711,0.005,8.529,3.823,8.533,8.533V486.46z"/>
	</g>
</g>
<g>
</g>
<g>
</g>
<g>
</g>
<g>
</g>
<g>
</g>
<g>
</g>
<g>
</g>
<g>
</g>
<g>
</g>
<g>
</g>
<g>
</g>
<g>
</g>
<g>
</g>
<g>
</g>
<g>
</g>
</svg>
