<?xml version="1.0" encoding="iso-8859-1"?>
<!-- Generator: Adobe Illustrator 19.0.0, SVG Export Plug-In . SVG Version: 6.00 Build 0)  -->
<svg version="1.1" id="Capa_1" xmlns="http://www.w3.org/2000/svg" xmlns:xlink="http://www.w3.org/1999/xlink" x="0px" y="0px"
	 viewBox="0 0 512 512" style="enable-background:new 0 0 512 512;" xml:space="preserve">
<g>
	<g>
		<g>
			<rect x="210.286" y="173.714" width="91.429" height="155.429"/>
			<path d="M182.857,155.429h146.286c5.049,0,9.143-4.093,9.143-9.143c0-5.049-4.093-9.143-9.143-9.143H182.857
				c-5.049,0-9.143,4.093-9.143,9.143C173.714,151.335,177.808,155.429,182.857,155.429z"/>
			<path d="M270.903,28.8c2.213-3.058,3.398-6.74,3.383-10.514C274.256,8.199,266.087,0.029,256,0
				c-10.087,0.029-18.256,8.199-18.286,18.286c-0.015,3.775,1.169,7.457,3.383,10.514C250.948,26.972,261.052,26.972,270.903,28.8z"
				/>
			<path d="M402.286,457.143H109.714c-5.043,0.015-9.128,4.1-9.143,9.143v36.571c0.015,5.043,4.1,9.128,9.143,9.143h9.143v-18.286
				c0-5.049,4.093-9.143,9.143-9.143c5.049,0,9.143,4.093,9.143,9.143V512h18.286v-18.286c0-5.049,4.093-9.143,9.143-9.143
				c5.049,0,9.143,4.093,9.143,9.143V512H192v-18.286c0-5.049,4.093-9.143,9.143-9.143c5.049,0,9.143,4.093,9.143,9.143V512h18.286
				v-18.286c0-5.049,4.093-9.143,9.143-9.143s9.143,4.093,9.143,9.143V512h18.286v-18.286c0-5.049,4.093-9.143,9.143-9.143
				c5.049,0,9.143,4.093,9.143,9.143V512h18.286v-18.286c0-5.049,4.093-9.143,9.143-9.143c5.049,0,9.143,4.093,9.143,9.143V512
				h18.286v-18.286c0-5.049,4.093-9.143,9.143-9.143s9.143,4.093,9.143,9.143V512h18.286v-18.286c0-5.049,4.093-9.143,9.143-9.143
				s9.143,4.093,9.143,9.143V512h9.143c5.043-0.015,9.128-4.1,9.143-9.143v-36.571C411.414,461.242,407.329,457.158,402.286,457.143
				z"/>
			<path d="M182.857,365.714h146.286c5.049,0,9.143-4.093,9.143-9.143c0-5.049-4.093-9.143-9.143-9.143H182.857
				c-5.049,0-9.143,4.093-9.143,9.143C173.714,361.621,177.808,365.714,182.857,365.714z"/>
			<path d="M134.217,438.857h243.566l5.577-13.897c1.817-4.562,1.751-9.658-0.183-14.171c-1.965-4.534-5.697-8.067-10.331-9.783
				L327.497,384H184.503l-45.349,17.006c-4.634,1.715-8.366,5.249-10.331,9.783c-1.934,4.513-2,9.61-0.183,14.171L134.217,438.857z"
				/>
			<path d="M207.634,118.857h96.64l12.16-36.571h0.091l11.246-33.646c1.045-3.103,0.356-6.528-1.809-8.985s-5.476-3.572-8.686-2.926
				c-3.21,0.646-5.831,2.956-6.877,6.059l-6.857,20.663c-27.284-23.649-67.802-23.649-95.086,0L201.6,42.789
				c-1.045-3.103-3.667-5.413-6.877-6.059c-3.21-0.646-6.521,0.469-8.686,2.926c-2.165,2.457-2.854,5.882-1.809,8.985
				L207.634,118.857z"/>
		</g>
	</g>
</g>
<g>
</g>
<g>
</g>
<g>
</g>
<g>
</g>
<g>
</g>
<g>
</g>
<g>
</g>
<g>
</g>
<g>
</g>
<g>
</g>
<g>
</g>
<g>
</g>
<g>
</g>
<g>
</g>
<g>
</g>
</svg>
